<svg xmlns="http://www.w3.org/2000/svg" viewBox="0 0 230 230" preserveAspectRatio="xMidYMid meet">
  <g transform="translate(0,230) scale(0.1,-0.1)" fill="#000" stroke="none">
    <path d="M 1454.0039 2000 C 1423.0039 2000 1404.0049 1994.0049 1390.0049 1980.0049 C 1372.0049 1962.0049 1369.9951 1946.998 1369.9951 1842.998 C 1369.9951 1777.998 1373.9932 1720.0039 1377.9932 1714.0039 C 1381.9932 1708.0039 1404.9951 1692.0049 1429.9951 1680.0049 C 1454.9951 1667.0049 1499.9961 1639.9941 1530.9961 1618.9941 C 1560.9961 1598.9941 1618.998 1547 1657.998 1505 C 1709.998 1449 1742.9951 1402.001 1774.9951 1336.001 C 1801.9951 1282.001 1827.0059 1212.9951 1836.0059 1164.9951 C 1848.0059 1106.9951 1851.0068 1055.0049 1847.0068 975.00488 C 1843.0068 894.00488 1835.0068 845.99805 1817.0068 792.99805 C 1804.0068 753.99805 1775 691.00293 1755 653.00293 C 1731 611.00293 1685.9961 553.99902 1635.9961 503.99902 C 1584.9961 453.99902 1532.9932 412.99609 1497.9932 395.99609 C 1448.9932 371.99609 1439.001 370.00684 1421.001 382.00684 C 1409.001 389.00684 1392.9951 408.99609 1384.9951 425.99609 C 1373.9951 449.99609 1369.9951 496.00586 1369.9951 611.00586 L 1369.9951 762.99805 L 1429.9951 817.00684 C 1472.9951 857.00684 1507.4971 891.99316 1534.4971 947.99316 C 1571.4971 1021.9932 1564.9951 1027.0039 1564.9951 1129.0039 C 1563.9951 1227.0039 1562.0029 1239.998 1533.0029 1302.998 C 1512.0029 1346.998 1481.0029 1390.9932 1443.0029 1427.9932 C 1409.0029 1461.9932 1360.0059 1497.9941 1326.0059 1513.9941 C 1294.0059 1528.9941 1241.9941 1547.0068 1208.9941 1552.0068 C 1164.9941 1561.0068 1134 1559.9961 1080 1550.9961 C 1041 1543.9961 983.00586 1524.999 951.00586 1508.999 C 918.00586 1491.999 869.99609 1456.0049 840.99609 1425.0049 C 811.99609 1395.0049 774.99805 1341.0049 757.99805 1305.0049 C 734.99805 1254.0049 727.00293 1221.001 723.00293 1156.001 C 718.00293 1089.001 720.99902 1059.002 738.99902 1002.002 C 750.99902 961.00195 776.00684 910.99805 797.00684 882.99805 C 817.00684 856.99805 851.00293 819.00391 873.00293 799.00391 L 912.99316 763.99414 L 787.00195 583.99414 L 660 405.00488 L 660 282.00195 C 660 165.00195 661.00488 158.00488 685.00488 135.00488 C 701.00488 118.00488 719.99805 110 742.99805 110 C 764.99805 110 783.00684 117.99805 797.00684 132.99805 C 808.00684 144.99805 870.99805 234.00488 937.99805 330.00488 C 1004.998 426.00488 1070.9951 518.99512 1084.9951 534.99512 L 1109.0039 564.99512 L 1110 499.00391 C 1110 462.00391 1115.0049 408.00391 1120.0049 379.00391 C 1126.0049 349.00391 1142.0068 300.00488 1157.0068 270.00488 C 1172.0068 240.00488 1209.001 189.99902 1241.001 158.99902 C 1274.001 125.99902 1327 87.999023 1365 68.999023 C 1429 37.999023 1466.4785 47.609375 1520.4785 59.609375 C 1551.4785 66.609375 1580.998 81.004883 1627.998 105.00488 C 1675.998 129.00488 1753.0039 178.99609 1799.0039 215.99609 C 1845.0039 252.99609 1911.9971 320.00391 1946.9971 364.00391 C 1981.9971 409.00391 2032.9951 490 2059.9951 545 C 2086.9951 600 2120.9951 688 2134.9951 740 C 2152.9951 806 2163.002 872.00586 2167.002 956.00586 C 2171.002 1031.0059 2167.9961 1108.9961 2160.9961 1160.9961 C 2153.9961 1206.9961 2136.998 1281 2122.998 1325 C 2108.998 1369 2075.9941 1448.001 2048.9941 1501.001 C 2021.9941 1553.001 1969.9932 1634.0049 1932.9932 1680.0049 C 1894.9932 1727.0049 1827.0049 1795.9932 1780.0049 1832.9932 C 1733.0049 1870.9932 1651.002 1923.001 1597.002 1951.001 C 1523.002 1987.001 1487.0039 2000 1454.0039 2000 z M 1148.0127 1310.9814 A 182.06289 177.91319 45.660459 0 0 1327.9688 1135.127 A 182.06289 177.91319 45.660459 0 0 1148.0127 950.98145 A 182.06289 177.91319 45.660459 0 0 968.07129 1126.8359 A 182.06289 177.91319 45.660459 0 0 1148.0127 1310.9814 z"/>
    <rect width="303.22354" height="337.23123" x="215.2925" y="-1778.2061" transform="scale(1,-1)" ry="20"/>
    <path d="m 215.24414,1135.8425 -0.0292,-886.03778 303.26568,-0.11025 V 1280.8547 Z"/>
    <path d="M 1148.7519 -1534.3739 A 430 432 90 0 0 716.75569 -1104.3683 A 430 432 90 0 0 1148.7519 -674.36413 A 430 432 90 0 0 1580.7628 -1104.3694 A 430 432 90 0 0 1148.7519 -1534.3739 z M 1148.2977 -1286.0634 A 179.87551 180.11912 44.339661 0 1 1328.2815 -1106.3033 A 179.87551 180.11912 44.339661 0 1 1148.2977 -926.06344 A 179.87551 180.11912 44.339661 0 1 968.29929 -1105.8239 A 179.87551 180.11912 44.339661 0 1 1148.2977 -1286.0634 z" transform="matrix(0.99976453,0.02169995,0,-1,0,0)"/>
    <path d="m 750,1575.8984 v 384.1993 l 349.6875,288.9257 v -415.5067 z"/>
  </g>
</svg>
